<svg width="287" height="60" viewBox="0 0 287 60" fill="none" xmlns="http://www.w3.org/2000/svg">
<rect width="287" height="60" rx="30" fill="#173B45"/>
<path d="M99.3164 29.8398V40.25C98.9648 40.7708 98.4049 41.3568 97.6367 42.0078C96.8685 42.6458 95.8073 43.2057 94.4531 43.6875C93.112 44.1562 91.3802 44.3906 89.2578 44.3906C87.526 44.3906 85.931 44.0911 84.4727 43.4922C83.0273 42.8802 81.7708 41.9948 80.7031 40.8359C79.6484 39.6641 78.8281 38.2448 78.2422 36.5781C77.6693 34.8984 77.3828 32.9974 77.3828 30.875V28.668C77.3828 26.5456 77.6302 24.651 78.125 22.9844C78.6328 21.3177 79.375 19.9049 80.3516 18.7461C81.3281 17.5742 82.526 16.6888 83.9453 16.0898C85.3646 15.4779 86.9922 15.1719 88.8281 15.1719C91.0026 15.1719 92.819 15.5495 94.2773 16.3047C95.7487 17.0469 96.8945 18.0755 97.7148 19.3906C98.5482 20.7057 99.082 22.2031 99.3164 23.8828H95.5469C95.3776 22.8542 95.0391 21.9167 94.5312 21.0703C94.0365 20.224 93.3268 19.5469 92.4023 19.0391C91.4779 18.5182 90.2865 18.2578 88.8281 18.2578C87.513 18.2578 86.3737 18.4987 85.4102 18.9805C84.4466 19.4622 83.6523 20.1523 83.0273 21.0508C82.4023 21.9492 81.9336 23.0365 81.6211 24.3125C81.3216 25.5885 81.1719 27.0273 81.1719 28.6289V30.875C81.1719 32.5156 81.3607 33.9805 81.7383 35.2695C82.1289 36.5586 82.6823 37.6589 83.3984 38.5703C84.1146 39.4688 84.9674 40.1523 85.957 40.6211C86.9596 41.0898 88.0664 41.3242 89.2773 41.3242C90.6185 41.3242 91.7057 41.2135 92.5391 40.9922C93.3724 40.7578 94.0234 40.4844 94.4922 40.1719C94.9609 39.8464 95.319 39.5404 95.5664 39.2539V32.8867H88.9844V29.8398H99.3164ZM108.633 26.1875V44H105.02V22.8672H108.535L108.633 26.1875ZM115.234 22.75L115.215 26.1094C114.915 26.0443 114.629 26.0052 114.355 25.9922C114.095 25.9661 113.796 25.9531 113.457 25.9531C112.624 25.9531 111.888 26.0833 111.25 26.3438C110.612 26.6042 110.072 26.9688 109.629 27.4375C109.186 27.9062 108.835 28.4661 108.574 29.1172C108.327 29.7552 108.164 30.4583 108.086 31.2266L107.07 31.8125C107.07 30.5365 107.194 29.3385 107.441 28.2188C107.702 27.099 108.099 26.1094 108.633 25.25C109.167 24.3776 109.844 23.7005 110.664 23.2188C111.497 22.724 112.487 22.4766 113.633 22.4766C113.893 22.4766 114.193 22.5091 114.531 22.5742C114.87 22.6263 115.104 22.6849 115.234 22.75ZM122.5 22.8672V44H118.867V22.8672H122.5ZM118.594 17.2617C118.594 16.6758 118.77 16.181 119.121 15.7773C119.486 15.3737 120.02 15.1719 120.723 15.1719C121.413 15.1719 121.94 15.3737 122.305 15.7773C122.682 16.181 122.871 16.6758 122.871 17.2617C122.871 17.8216 122.682 18.3034 122.305 18.707C121.94 19.0977 121.413 19.293 120.723 19.293C120.02 19.293 119.486 19.0977 119.121 18.707C118.77 18.3034 118.594 17.8216 118.594 17.2617ZM131.914 26.9297V52.125H128.281V22.8672H131.602L131.914 26.9297ZM146.152 33.2578V33.668C146.152 35.2044 145.97 36.6302 145.605 37.9453C145.241 39.2474 144.707 40.3802 144.004 41.3438C143.314 42.3073 142.461 43.056 141.445 43.5898C140.43 44.1237 139.264 44.3906 137.949 44.3906C136.608 44.3906 135.423 44.1693 134.395 43.7266C133.366 43.2839 132.493 42.6393 131.777 41.793C131.061 40.9466 130.488 39.931 130.059 38.7461C129.642 37.5612 129.355 36.2266 129.199 34.7422V32.5547C129.355 30.9922 129.648 29.5924 130.078 28.3555C130.508 27.1185 131.074 26.0638 131.777 25.1914C132.493 24.306 133.359 23.6354 134.375 23.1797C135.391 22.7109 136.562 22.4766 137.891 22.4766C139.219 22.4766 140.397 22.737 141.426 23.2578C142.454 23.7656 143.32 24.4948 144.023 25.4453C144.727 26.3958 145.254 27.5352 145.605 28.8633C145.97 30.1784 146.152 31.6432 146.152 33.2578ZM142.52 33.668V33.2578C142.52 32.2031 142.409 31.2135 142.188 30.2891C141.966 29.3516 141.621 28.5312 141.152 27.8281C140.697 27.112 140.111 26.5521 139.395 26.1484C138.678 25.7318 137.826 25.5234 136.836 25.5234C135.924 25.5234 135.13 25.6797 134.453 25.9922C133.789 26.3047 133.223 26.7279 132.754 27.2617C132.285 27.7826 131.901 28.3815 131.602 29.0586C131.315 29.7227 131.1 30.4128 130.957 31.1289V36.1875C131.217 37.099 131.582 37.9583 132.051 38.7656C132.52 39.5599 133.145 40.2044 133.926 40.6992C134.707 41.181 135.69 41.4219 136.875 41.4219C137.852 41.4219 138.691 41.2201 139.395 40.8164C140.111 40.3997 140.697 39.8333 141.152 39.1172C141.621 38.401 141.966 37.5807 142.188 36.6562C142.409 35.7188 142.52 34.7227 142.52 33.668ZM161.797 32.8477H154.199V29.7812H161.797C163.268 29.7812 164.46 29.5469 165.371 29.0781C166.283 28.6094 166.947 27.9583 167.363 27.125C167.793 26.2917 168.008 25.3411 168.008 24.2734C168.008 23.2969 167.793 22.3789 167.363 21.5195C166.947 20.6602 166.283 19.9701 165.371 19.4492C164.46 18.9154 163.268 18.6484 161.797 18.6484H155.078V44H151.309V15.5625H161.797C163.945 15.5625 165.762 15.9336 167.246 16.6758C168.73 17.418 169.857 18.4466 170.625 19.7617C171.393 21.0638 171.777 22.5547 171.777 24.2344C171.777 26.0573 171.393 27.6133 170.625 28.9023C169.857 30.1914 168.73 31.1745 167.246 31.8516C165.762 32.5156 163.945 32.8477 161.797 32.8477ZM174.766 33.668V33.2188C174.766 31.6953 174.987 30.2826 175.43 28.9805C175.872 27.6654 176.51 26.526 177.344 25.5625C178.177 24.5859 179.186 23.8307 180.371 23.2969C181.556 22.75 182.884 22.4766 184.355 22.4766C185.84 22.4766 187.174 22.75 188.359 23.2969C189.557 23.8307 190.573 24.5859 191.406 25.5625C192.253 26.526 192.897 27.6654 193.34 28.9805C193.783 30.2826 194.004 31.6953 194.004 33.2188V33.668C194.004 35.1914 193.783 36.6042 193.34 37.9062C192.897 39.2083 192.253 40.3477 191.406 41.3242C190.573 42.2878 189.564 43.043 188.379 43.5898C187.207 44.1237 185.879 44.3906 184.395 44.3906C182.91 44.3906 181.576 44.1237 180.391 43.5898C179.206 43.043 178.19 42.2878 177.344 41.3242C176.51 40.3477 175.872 39.2083 175.43 37.9062C174.987 36.6042 174.766 35.1914 174.766 33.668ZM178.379 33.2188V33.668C178.379 34.7227 178.503 35.7188 178.75 36.6562C178.997 37.5807 179.368 38.401 179.863 39.1172C180.371 39.8333 181.003 40.3997 181.758 40.8164C182.513 41.2201 183.392 41.4219 184.395 41.4219C185.384 41.4219 186.25 41.2201 186.992 40.8164C187.747 40.3997 188.372 39.8333 188.867 39.1172C189.362 38.401 189.733 37.5807 189.98 36.6562C190.241 35.7188 190.371 34.7227 190.371 33.668V33.2188C190.371 32.1771 190.241 31.194 189.98 30.2695C189.733 29.332 189.355 28.5052 188.848 27.7891C188.353 27.0599 187.728 26.487 186.973 26.0703C186.23 25.6536 185.358 25.4453 184.355 25.4453C183.366 25.4453 182.493 25.6536 181.738 26.0703C180.996 26.487 180.371 27.0599 179.863 27.7891C179.368 28.5052 178.997 29.332 178.75 30.2695C178.503 31.194 178.379 32.1771 178.379 33.2188ZM202.461 22.8672V44H198.828V22.8672H202.461ZM198.555 17.2617C198.555 16.6758 198.73 16.181 199.082 15.7773C199.447 15.3737 199.98 15.1719 200.684 15.1719C201.374 15.1719 201.901 15.3737 202.266 15.7773C202.643 16.181 202.832 16.6758 202.832 17.2617C202.832 17.8216 202.643 18.3034 202.266 18.707C201.901 19.0977 201.374 19.293 200.684 19.293C199.98 19.293 199.447 19.0977 199.082 18.707C198.73 18.3034 198.555 17.8216 198.555 17.2617ZM211.875 27.3789V44H208.262V22.8672H211.68L211.875 27.3789ZM211.016 32.6328L209.512 32.5742C209.525 31.1289 209.74 29.7943 210.156 28.5703C210.573 27.3333 211.159 26.2591 211.914 25.3477C212.669 24.4362 213.568 23.7331 214.609 23.2383C215.664 22.7305 216.829 22.4766 218.105 22.4766C219.147 22.4766 220.085 22.6198 220.918 22.9062C221.751 23.1797 222.461 23.6224 223.047 24.2344C223.646 24.8464 224.102 25.6406 224.414 26.6172C224.727 27.5807 224.883 28.7591 224.883 30.1523V44H221.25V30.1133C221.25 29.0065 221.087 28.1211 220.762 27.457C220.436 26.7799 219.961 26.2917 219.336 25.9922C218.711 25.6797 217.943 25.5234 217.031 25.5234C216.133 25.5234 215.312 25.7122 214.57 26.0898C213.841 26.4674 213.21 26.9883 212.676 27.6523C212.155 28.3164 211.745 29.0781 211.445 29.9375C211.159 30.7839 211.016 31.6823 211.016 32.6328ZM239.219 22.8672V25.6406H227.793V22.8672H239.219ZM231.66 17.7305H235.273V38.7656C235.273 39.4818 235.384 40.0221 235.605 40.3867C235.827 40.7513 236.113 40.9922 236.465 41.1094C236.816 41.2266 237.194 41.2852 237.598 41.2852C237.897 41.2852 238.21 41.2591 238.535 41.207C238.874 41.1419 239.128 41.0898 239.297 41.0508L239.316 44C239.03 44.0911 238.652 44.1758 238.184 44.2539C237.728 44.3451 237.174 44.3906 236.523 44.3906C235.638 44.3906 234.824 44.2148 234.082 43.8633C233.34 43.5117 232.747 42.9258 232.305 42.1055C231.875 41.2721 231.66 40.1523 231.66 38.7461V17.7305Z" fill="#F8EDED"/>
<path d="M30 60C46.5685 60 60 46.5685 60 30C60 13.4315 46.5685 0 30 0C13.4315 0 0 13.4315 0 30C0 46.5685 13.4315 60 30 60Z" fill="#191919"/>
<path d="M29.9998 58.3333C45.6479 58.3333 58.3332 45.6481 58.3332 30C58.3332 14.3519 45.6479 1.66667 29.9998 1.66667C14.3518 1.66667 1.6665 14.3519 1.6665 30C1.6665 45.6481 14.3518 58.3333 29.9998 58.3333Z" fill="#313131"/>
<path d="M30.0002 51.6667C41.9663 51.6667 51.6668 41.9662 51.6668 30C51.6668 18.0338 41.9663 8.33333 30.0002 8.33333C18.034 8.33333 8.3335 18.0338 8.3335 30C8.3335 41.9662 18.034 51.6667 30.0002 51.6667Z" fill="#AEB3B2"/>
<path d="M29.9998 48.3333C40.1251 48.3333 48.3332 40.1252 48.3332 30C48.3332 19.8748 40.1251 11.6667 29.9998 11.6667C19.8746 11.6667 11.6665 19.8748 11.6665 30C11.6665 40.1252 19.8746 48.3333 29.9998 48.3333Z" fill="#313131"/>
<path d="M30 45C38.2843 45 45 38.2843 45 30C45 21.7157 38.2843 15 30 15C21.7157 15 15 21.7157 15 30C15 38.2843 21.7157 45 30 45Z" fill="#787878"/>
<path d="M30 40C35.5228 40 40 35.5228 40 30C40 24.4772 35.5228 20 30 20C24.4772 20 20 24.4772 20 30C20 35.5228 24.4772 40 30 40Z" fill="#313131"/>
<path d="M29.9998 33.3333C31.8408 33.3333 33.3332 31.841 33.3332 30C33.3332 28.1591 31.8408 26.6667 29.9998 26.6667C28.1589 26.6667 26.6665 28.1591 26.6665 30C26.6665 31.841 28.1589 33.3333 29.9998 33.3333Z" fill="#AEB3B2"/>
<path d="M30.0002 31.6667C30.9206 31.6667 31.6668 30.9205 31.6668 30C31.6668 29.0795 30.9206 28.3333 30.0002 28.3333C29.0797 28.3333 28.3335 29.0795 28.3335 30C28.3335 30.9205 29.0797 31.6667 30.0002 31.6667Z" fill="#E1E1E1"/>
<path d="M32.4499 36.2333C31.5599 34.6583 29.2133 34.2867 27.9899 35.6783C25.5383 39.0117 23.4049 42.5367 21.7266 46.3383C22.001 46.4794 22.2799 46.6139 22.5633 46.7417C24.4949 45 26.2383 43.105 27.8799 41.115H32.1216C33.7649 43.1033 35.5066 44.995 37.4366 46.7383C37.7199 46.6105 37.9994 46.4755 38.2749 46.3333C36.6933 42.7483 34.6633 39.4633 32.4499 36.2333ZM48.2333 28.095C48.2016 27.7867 48.1399 27.485 48.0933 27.1817C43.9599 27.6033 39.9499 28.5433 36.0216 29.845C34.3183 30.5783 33.9499 32.925 35.1699 34.2567C37.5583 37.3617 40.0583 40.31 42.9849 42.9267C43.2049 42.705 43.4066 42.465 43.6149 42.2333C42.5549 39.8633 41.2949 37.6267 39.9133 35.4533L41.2266 31.42C43.6249 30.4717 45.9799 29.395 48.2333 28.095ZM13.6999 21.6483C17.0916 23.62 20.6649 25.085 24.3533 26.3967C25.9699 27.1567 28.1383 26.0483 28.2866 24.225C28.3116 20.0883 27.9649 15.9817 27.0883 11.9217C26.7783 11.9717 26.4683 12.0133 26.1633 12.0783C25.7964 13.8553 25.5299 15.6514 25.3649 17.4583C25.2849 18.205 25.2216 18.9817 25.1716 19.7667L21.7399 22.2533C19.2466 21.6117 16.7299 21.1067 14.1499 20.83C13.9933 21.0978 13.8433 21.3706 13.6999 21.6483ZM34.9633 26.5867C38.9066 25.3317 42.7066 23.7333 46.2983 21.6433C46.1539 21.3635 46.0016 21.0878 45.8416 20.8167C44.0249 21.01 42.2499 21.3317 40.4966 21.7183C39.7616 21.8717 39.0033 22.0517 38.2416 22.2467L34.8149 19.7517C34.6549 17.1767 34.3566 14.6217 33.8183 12.075C33.5183 12.0117 33.2099 11.97 32.9049 11.9217C32.0783 15.755 31.7883 19.605 31.6816 23.5183C31.4583 25.2883 33.1833 27.0083 34.9633 26.5867ZM17.0133 42.9267C19.9399 40.31 22.4383 37.3617 24.8283 34.2567C26.0499 32.9233 25.6783 30.5783 23.9783 29.845C20.0516 28.5433 16.0399 27.6033 11.9066 27.1833C11.8599 27.4883 11.7983 27.7883 11.7666 28.0967C14.0199 29.3967 16.3749 30.4733 18.7733 31.42L20.0866 35.4533C18.7049 37.6267 17.4466 39.8633 16.3849 42.2333C16.5933 42.465 16.7933 42.705 17.0133 42.9267Z" fill="#AEB3B2"/>
<path d="M37.4498 31.945C39.3679 31.3095 41.2717 30.6316 43.1598 29.9117C44.8584 29.269 46.5365 28.5731 48.1914 27.825C48.1748 27.6783 48.1464 27.5367 48.1248 27.3917C44.1552 28.2302 40.2375 29.2981 36.3914 30.59C35.2681 31.02 34.9231 32.6917 35.7031 33.5767C35.7864 33.7 36.0364 34.0117 36.1214 34.14C38.3331 37.11 40.6414 40.0133 43.1281 42.7667C43.2331 42.6583 43.3298 42.5433 43.4314 42.4333C41.4581 39.0117 39.2464 35.7383 36.9781 32.5167C36.7781 32.155 37.1698 32.035 37.4498 31.945ZM16.5664 42.435C16.6681 42.545 16.7648 42.6617 16.8698 42.7683C19.3548 40.015 21.6648 37.1117 23.8764 34.1417C23.9631 34.0167 24.2131 33.7 24.2948 33.5783C25.0781 32.6933 24.7281 31.0217 23.6081 30.5917C19.7621 29.2998 15.8444 28.2319 11.8748 27.3933C11.8548 27.5383 11.8264 27.68 11.8081 27.8267C13.4698 28.57 15.1431 29.2783 16.8414 29.9133C18.7297 30.6327 20.6335 31.3107 22.5514 31.9467C22.8314 32.035 23.2214 32.1567 23.0214 32.5183C20.7531 35.74 18.5398 39.0133 16.5664 42.435ZM32.0464 37.1033C31.9548 36.9817 31.7314 36.6467 31.6398 36.5317C31.0398 35.5133 29.3414 35.3283 28.5864 36.2617C26.1697 39.5195 23.9437 42.9146 21.9198 46.43C22.0509 46.4956 22.1831 46.5594 22.3164 46.6217C23.5372 45.2806 24.7155 43.9016 25.8498 42.4867C27.1175 40.9128 28.3506 39.3113 29.5481 37.6833C29.7181 37.445 29.9548 37.11 30.2364 37.4133C32.6031 40.5683 35.0331 43.6867 37.6798 46.6217C37.8153 46.5583 37.9498 46.4933 38.0831 46.4267C36.2348 43.215 34.1864 40.1233 32.0464 37.1033ZM13.7914 21.455C17.1798 22.97 20.6581 24.27 24.1681 25.455C24.9881 25.7633 25.8664 26.035 26.6898 25.4433C27.5081 24.845 27.5198 23.9233 27.4798 23.0483C27.4398 19.345 27.2781 15.6383 26.8831 11.95C26.7364 11.975 26.5881 11.9883 26.4431 12.0183C26.0364 15.84 25.8814 19.6783 25.8481 23.515C25.8514 23.8083 25.8564 24.2183 25.4498 24.1383C21.6781 22.975 17.8764 21.8817 14.0081 21.0617L13.7914 21.455ZM32.5198 23.05C32.5231 23.2017 32.5064 23.605 32.5131 23.7517C32.3998 24.9283 33.6648 26.075 34.8248 25.765C38.6983 24.5484 42.498 23.1082 46.2048 21.4517L45.9931 21.0667C44.2147 21.4344 42.4483 21.8579 40.6964 22.3367C38.7458 22.8647 36.807 23.4354 34.8814 24.0483C34.6031 24.1417 34.2148 24.2733 34.1648 23.8617C34.1048 19.9133 33.9698 15.955 33.5531 12.02C33.4098 11.9917 33.2598 11.9783 33.1148 11.9533C32.7248 15.6417 32.5631 19.3467 32.5198 23.05Z" fill="#E1E1E1"/>
</svg>
